<svg width="18" height="19" viewBox="0 0 18 19" fill="none" xmlns="http://www.w3.org/2000/svg">
<path fill-rule="evenodd" clip-rule="evenodd" d="M14.0168 12.0689C14.9597 10.4899 15.2932 8.62063 14.9543 6.81292C14.6155 5.00521 13.6277 3.38364 12.1769 2.2533C10.726 1.12295 8.91211 0.561765 7.07642 0.675314C5.24074 0.788864 3.50982 1.56932 2.20934 2.86986C0.908861 4.17039 0.128467 5.90133 0.0149876 7.73702C-0.0984913 9.57271 0.462768 11.3866 1.59317 12.8374C2.72357 14.2882 4.34518 15.2759 6.1529 15.6147C7.96062 15.9535 9.82984 15.62 11.4089 14.6769L15.3921 18.66L18 16.0522L14.0168 12.0689ZM7.54176 12.0554C6.77958 12.0554 6.03452 11.8294 5.4008 11.406C4.76708 10.9825 4.27315 10.3807 3.98148 9.6765C3.68982 8.97234 3.61351 8.19751 3.76221 7.44998C3.91091 6.70245 4.27794 6.01581 4.81688 5.47687C5.35583 4.93794 6.04249 4.57093 6.79002 4.42225C7.53755 4.27357 8.31238 4.3499 9.01653 4.64158C9.72068 4.93327 10.3225 5.42721 10.746 6.06094C11.1694 6.69468 11.3954 7.43974 11.3954 8.20192C11.3954 8.70797 11.2957 9.20907 11.102 9.67661C10.9084 10.1441 10.6245 10.569 10.2667 10.9268C9.90881 11.2846 9.484 11.5685 9.01646 11.7621C8.54892 11.9558 8.04781 12.0554 7.54176 12.0554Z" fill="white"/>
</svg>
