<svg width="375" height="28" viewBox="0 0 375 28" fill="none" xmlns="http://www.w3.org/2000/svg">
<path d="M0.233665 27V6.81818H5.66016V10.3395H5.87038C6.23828 9.08688 6.85582 8.14086 7.72301 7.50142C8.5902 6.85322 9.58878 6.52912 10.7188 6.52912C10.9991 6.52912 11.3013 6.54664 11.6254 6.58167C11.9495 6.61671 12.2341 6.66489 12.4794 6.72621V11.6928C12.2166 11.614 11.8531 11.5439 11.3889 11.4826C10.9246 11.4213 10.4998 11.3906 10.1143 11.3906C9.29096 11.3906 8.55516 11.5702 7.90696 11.9293C7.26752 12.2797 6.75947 12.7702 6.38281 13.4009C6.01491 14.0316 5.83097 14.7586 5.83097 15.582V27H0.233665ZM22.6313 27.3942C20.5553 27.3942 18.7684 26.9737 17.2705 26.1328C15.7814 25.2831 14.6339 24.0831 13.828 22.5327C13.0222 20.9735 12.6192 19.1296 12.6192 17.0011C12.6192 14.9251 13.0222 13.1031 13.828 11.5352C14.6339 9.96721 15.7683 8.74526 17.2311 7.86932C18.7027 6.99337 20.4283 6.5554 22.4079 6.5554C23.7394 6.5554 24.9788 6.77 26.1263 7.19922C27.2826 7.61967 28.2899 8.25473 29.1483 9.1044C30.0155 9.95407 30.69 11.0227 31.1718 12.3104C31.6536 13.5893 31.8944 15.0871 31.8944 16.804V18.3413H14.8529V14.8725H26.6256C26.6256 14.0666 26.4504 13.3527 26.1001 12.7308C25.7497 12.1089 25.2635 11.6228 24.6416 11.2724C24.0284 10.9132 23.3145 10.7337 22.4999 10.7337C21.6502 10.7337 20.8969 10.9308 20.24 11.3249C19.5918 11.7103 19.0837 12.2315 18.7158 12.8885C18.3479 13.5367 18.1596 14.2594 18.1508 15.0565V18.3544C18.1508 19.353 18.3348 20.2158 18.7027 20.9428C19.0793 21.6699 19.6093 22.2305 20.2925 22.6246C20.9758 23.0188 21.786 23.2159 22.7233 23.2159C23.3452 23.2159 23.9146 23.1283 24.4314 22.9531C24.9482 22.7779 25.3905 22.5152 25.7584 22.1648C26.1263 21.8144 26.4066 21.3852 26.5993 20.8771L31.7762 21.2188C31.5134 22.4626 30.9747 23.5488 30.1601 24.4773C29.3542 25.397 28.3118 26.1153 27.0329 26.6321C25.7628 27.1402 24.2956 27.3942 22.6313 27.3942ZM40.1444 15.3324V27H34.5471V6.81818H39.8817V10.3789H40.1182C40.5649 9.20514 41.3138 8.27663 42.365 7.59339C43.4161 6.9014 44.6906 6.5554 46.1885 6.5554C47.59 6.5554 48.8119 6.86198 49.8543 7.47514C50.8967 8.0883 51.7069 8.96425 52.2851 10.103C52.8632 11.233 53.1523 12.5819 53.1523 14.1499V27H47.555V15.1484C47.5637 13.9134 47.2484 12.9498 46.6089 12.2578C45.9695 11.5571 45.0892 11.2067 43.968 11.2067C43.2146 11.2067 42.5489 11.3687 41.9708 11.6928C41.4014 12.0169 40.9547 12.4899 40.6306 13.1119C40.3153 13.725 40.1532 14.4652 40.1444 15.3324ZM67.2985 6.81818V11.0227H55.1447V6.81818H67.2985ZM57.9039 1.98295H63.5012V20.7983C63.5012 21.3151 63.5801 21.718 63.7377 22.0071C63.8954 22.2874 64.1144 22.4845 64.3947 22.5984C64.6838 22.7122 65.0166 22.7692 65.3933 22.7692C65.6561 22.7692 65.9189 22.7473 66.1816 22.7035C66.4444 22.6509 66.6459 22.6115 66.786 22.5852L67.6664 26.7504C67.3861 26.8379 66.9919 26.9387 66.4838 27.0526C65.9758 27.1752 65.3583 27.2496 64.6312 27.2759C63.2823 27.3285 62.0997 27.1489 61.0836 26.7372C60.0763 26.3255 59.2923 25.6861 58.7317 24.8189C58.1711 23.9517 57.8952 22.8568 57.9039 21.5341V1.98295ZM81.9046 13.7294V18.1705H69.6325V13.7294H81.9046ZM243.941 27.3416C243.074 27.3416 242.329 27.035 241.707 26.4219C241.094 25.8 240.787 25.0554 240.787 24.1882C240.787 23.3298 241.094 22.594 241.707 21.9808C242.329 21.3677 243.074 21.0611 243.941 21.0611C244.782 21.0611 245.518 21.3677 246.148 21.9808C246.779 22.594 247.094 23.3298 247.094 24.1882C247.094 24.7663 246.945 25.2963 246.648 25.7781C246.358 26.2511 245.977 26.6321 245.504 26.9212C245.031 27.2015 244.51 27.3416 243.941 27.3416ZM259.808 27.3942C257.741 27.3942 255.963 26.9562 254.474 26.0803C252.993 25.1955 251.855 23.9692 251.058 22.4013C250.269 20.8333 249.875 19.0289 249.875 16.9879C249.875 14.9207 250.274 13.1075 251.071 11.5483C251.877 9.98035 253.02 8.7584 254.5 7.88246C255.98 6.99775 257.741 6.5554 259.782 6.5554C261.543 6.5554 263.084 6.87512 264.407 7.51456C265.73 8.154 266.776 9.05185 267.547 10.2081C268.318 11.3643 268.743 12.7221 268.822 14.2812H263.54C263.391 13.2739 262.997 12.4637 262.357 11.8505C261.727 11.2286 260.899 10.9176 259.874 10.9176C259.007 10.9176 258.249 11.1541 257.601 11.6271C256.961 12.0914 256.462 12.7702 256.103 13.6637C255.744 14.5572 255.564 15.639 255.564 16.9091C255.564 18.1967 255.74 19.2917 256.09 20.1939C256.449 21.0961 256.953 21.7837 257.601 22.2567C258.249 22.7298 259.007 22.9663 259.874 22.9663C260.513 22.9663 261.087 22.8349 261.595 22.5721C262.112 22.3093 262.537 21.9283 262.87 21.429C263.211 20.9209 263.435 20.3121 263.54 19.6026H268.822C268.734 21.1443 268.314 22.502 267.56 23.6758C266.816 24.8408 265.787 25.7518 264.473 26.4087C263.159 27.0657 261.604 27.3942 259.808 27.3942ZM280.524 27.3942C278.483 27.3942 276.718 26.9606 275.229 26.0934C273.749 25.2174 272.606 23.9999 271.8 22.4407C270.994 20.8728 270.591 19.0552 270.591 16.9879C270.591 14.9032 270.994 13.0812 271.8 11.522C272.606 9.95407 273.749 8.7365 275.229 7.86932C276.718 6.99337 278.483 6.5554 280.524 6.5554C282.565 6.5554 284.326 6.99337 285.806 7.86932C287.295 8.7365 288.443 9.95407 289.249 11.522C290.054 13.0812 290.457 14.9032 290.457 16.9879C290.457 19.0552 290.054 20.8728 289.249 22.4407C288.443 23.9999 287.295 25.2174 285.806 26.0934C284.326 26.9606 282.565 27.3942 280.524 27.3942ZM280.55 23.0582C281.479 23.0582 282.254 22.7955 282.876 22.2699C283.498 21.7356 283.967 21.0085 284.282 20.0888C284.606 19.169 284.768 18.1223 284.768 16.9485C284.768 15.7747 284.606 14.728 284.282 13.8082C283.967 12.8885 283.498 12.1615 282.876 11.6271C282.254 11.0928 281.479 10.8256 280.55 10.8256C279.613 10.8256 278.825 11.0928 278.185 11.6271C277.555 12.1615 277.077 12.8885 276.753 13.8082C276.438 14.728 276.28 15.7747 276.28 16.9485C276.28 18.1223 276.438 19.169 276.753 20.0888C277.077 21.0085 277.555 21.7356 278.185 22.2699C278.825 22.7955 279.613 23.0582 280.55 23.0582ZM293.097 27V6.81818H298.431V10.3789H298.668C299.088 9.19638 299.789 8.26349 300.77 7.58025C301.751 6.89702 302.925 6.5554 304.292 6.5554C305.676 6.5554 306.854 6.9014 307.826 7.59339C308.798 8.27663 309.446 9.20514 309.771 10.3789H309.981C310.393 9.22266 311.137 8.29853 312.214 7.60653C313.301 6.90578 314.584 6.5554 316.064 6.5554C317.948 6.5554 319.476 7.15542 320.65 8.35547C321.832 9.54676 322.424 11.2373 322.424 13.4272V27H316.839V14.5309C316.839 13.4097 316.542 12.5688 315.946 12.0082C315.35 11.4476 314.606 11.1673 313.712 11.1673C312.696 11.1673 311.904 11.4914 311.334 12.1396C310.765 12.779 310.48 13.6243 310.48 14.6754V27H305.054V14.4126C305.054 13.4228 304.769 12.6345 304.2 12.0476C303.639 11.4607 302.899 11.1673 301.979 11.1673C301.357 11.1673 300.797 11.3249 300.297 11.6403C299.807 11.9469 299.417 12.3804 299.128 12.9411C298.839 13.4929 298.694 14.1411 298.694 14.8857V27H293.097ZM329.117 27.3416C328.249 27.3416 327.505 27.035 326.883 26.4219C326.27 25.8 325.963 25.0554 325.963 24.1882C325.963 23.3298 326.27 22.594 326.883 21.9808C327.505 21.3677 328.249 21.0611 329.117 21.0611C329.958 21.0611 330.693 21.3677 331.324 21.9808C331.955 22.594 332.27 23.3298 332.27 24.1882C332.27 24.7663 332.121 25.2963 331.823 25.7781C331.534 26.2511 331.153 26.6321 330.68 26.9212C330.207 27.2015 329.686 27.3416 329.117 27.3416ZM341.62 27.381C340.333 27.381 339.185 27.1577 338.178 26.7109C337.171 26.2554 336.374 25.5853 335.787 24.7006C335.209 23.8072 334.919 22.6947 334.919 21.3633C334.919 20.2421 335.125 19.3004 335.537 18.5384C335.949 17.7763 336.509 17.1631 337.219 16.6989C337.928 16.2346 338.734 15.8842 339.636 15.6477C340.547 15.4112 341.502 15.2448 342.501 15.1484C343.675 15.0258 344.621 14.9119 345.339 14.8068C346.057 14.6929 346.578 14.5265 346.902 14.3075C347.227 14.0885 347.389 13.7644 347.389 13.3352V13.2564C347.389 12.4242 347.126 11.7804 346.6 11.3249C346.083 10.8694 345.348 10.6417 344.393 10.6417C343.386 10.6417 342.584 10.8651 341.988 11.3118C341.393 11.7498 340.999 12.3016 340.806 12.9673L335.629 12.5469C335.892 11.3205 336.409 10.2607 337.179 9.36719C337.95 8.46496 338.944 7.77296 340.162 7.29119C341.388 6.80066 342.807 6.5554 344.419 6.5554C345.54 6.5554 346.613 6.68679 347.638 6.94957C348.672 7.21236 349.587 7.61967 350.384 8.17152C351.19 8.72337 351.825 9.43288 352.29 10.3001C352.754 11.1585 352.986 12.1877 352.986 13.3878V27H347.678V24.2013H347.52C347.196 24.832 346.762 25.3883 346.219 25.87C345.676 26.343 345.024 26.7153 344.261 26.9869C343.499 27.2496 342.619 27.381 341.62 27.381ZM343.223 23.5181C344.047 23.5181 344.774 23.3561 345.405 23.032C346.035 22.6991 346.53 22.2524 346.889 21.6918C347.248 21.1312 347.428 20.4961 347.428 19.7866V17.6449C347.253 17.7588 347.012 17.8639 346.705 17.9602C346.408 18.0478 346.07 18.131 345.694 18.2099C345.317 18.2799 344.94 18.3456 344.564 18.407C344.187 18.4595 343.845 18.5077 343.539 18.5515C342.882 18.6478 342.308 18.8011 341.818 19.0114C341.327 19.2216 340.946 19.5063 340.674 19.8654C340.403 20.2158 340.267 20.6538 340.267 21.1793C340.267 21.9414 340.543 22.5239 341.095 22.9268C341.656 23.321 342.365 23.5181 343.223 23.5181ZM369.271 18.407V6.81818H374.868V27H369.494V23.3342H369.284C368.828 24.5167 368.07 25.4671 367.011 26.1854C365.959 26.9036 364.676 27.2628 363.161 27.2628C361.812 27.2628 360.625 26.9562 359.6 26.343C358.575 25.7299 357.774 24.8583 357.196 23.7283C356.626 22.5984 356.337 21.245 356.328 19.6683V6.81818H361.926V18.6697C361.934 19.861 362.254 20.8027 362.885 21.4947C363.516 22.1867 364.361 22.5327 365.421 22.5327C366.095 22.5327 366.726 22.3794 367.313 22.0728C367.9 21.7575 368.373 21.2932 368.732 20.68C369.1 20.0669 369.279 19.3092 369.271 18.407Z" fill="#202A54"/>
<path d="M94.7927 27.3942C92.7255 27.3942 90.9473 26.9562 89.4582 26.0803C87.9778 25.1955 86.8391 23.9692 86.042 22.4013C85.2536 20.8333 84.8595 19.0289 84.8595 16.9879C84.8595 14.9207 85.258 13.1075 86.0551 11.5483C86.861 9.98035 88.0041 8.7584 89.4845 7.88246C90.9648 6.99775 92.7255 6.5554 94.7664 6.5554C96.5271 6.5554 98.0687 6.87512 99.3914 7.51456C100.714 8.154 101.761 9.05185 102.532 10.2081C103.303 11.3643 103.727 12.7221 103.806 14.2812H98.5242C98.3753 13.2739 97.9811 12.4637 97.3417 11.8505C96.711 11.2286 95.8833 10.9176 94.8584 10.9176C93.9912 10.9176 93.2335 11.1541 92.5853 11.6271C91.9459 12.0914 91.4466 12.7702 91.0874 13.6637C90.7283 14.5572 90.5487 15.639 90.5487 16.9091C90.5487 18.1967 90.7239 19.2917 91.0743 20.1939C91.4334 21.0961 91.9371 21.7837 92.5853 22.2567C93.2335 22.7298 93.9912 22.9663 94.8584 22.9663C95.4978 22.9663 96.0716 22.8349 96.5796 22.5721C97.0964 22.3093 97.5213 21.9283 97.8541 21.429C98.1958 20.9209 98.4191 20.3121 98.5242 19.6026H103.806C103.719 21.1443 103.298 22.502 102.545 23.6758C101.8 24.8408 100.771 25.7518 99.4571 26.4087C98.1432 27.0657 96.5884 27.3942 94.7927 27.3942ZM112.145 27.381C110.857 27.381 109.71 27.1577 108.702 26.7109C107.695 26.2554 106.898 25.5853 106.311 24.7006C105.733 23.8072 105.444 22.6947 105.444 21.3633C105.444 20.2421 105.65 19.3004 106.061 18.5384C106.473 17.7763 107.034 17.1631 107.743 16.6989C108.453 16.2346 109.259 15.8842 110.161 15.6477C111.072 15.4112 112.027 15.2448 113.025 15.1484C114.199 15.0258 115.145 14.9119 115.863 14.8068C116.582 14.6929 117.103 14.5265 117.427 14.3075C117.751 14.0885 117.913 13.7644 117.913 13.3352V13.2564C117.913 12.4242 117.65 11.7804 117.125 11.3249C116.608 10.8694 115.872 10.6417 114.917 10.6417C113.91 10.6417 113.108 10.8651 112.513 11.3118C111.917 11.7498 111.523 12.3016 111.33 12.9673L106.153 12.5469C106.416 11.3205 106.933 10.2607 107.704 9.36719C108.475 8.46496 109.469 7.77296 110.686 7.29119C111.913 6.80066 113.332 6.5554 114.944 6.5554C116.065 6.5554 117.138 6.68679 118.163 6.94957C119.196 7.21236 120.112 7.61967 120.909 8.17152C121.715 8.72337 122.35 9.43288 122.814 10.3001C123.278 11.1585 123.51 12.1877 123.51 13.3878V27H118.202V24.2013H118.044C117.72 24.832 117.287 25.3883 116.744 25.87C116.201 26.343 115.548 26.7153 114.786 26.9869C114.024 27.2496 113.143 27.381 112.145 27.381ZM113.748 23.5181C114.571 23.5181 115.298 23.3561 115.929 23.032C116.56 22.6991 117.055 22.2524 117.414 21.6918C117.773 21.1312 117.952 20.4961 117.952 19.7866V17.6449C117.777 17.7588 117.536 17.8639 117.23 17.9602C116.932 18.0478 116.595 18.131 116.218 18.2099C115.841 18.2799 115.465 18.3456 115.088 18.407C114.711 18.4595 114.37 18.5077 114.063 18.5515C113.406 18.6478 112.833 18.8011 112.342 19.0114C111.851 19.2216 111.47 19.5063 111.199 19.8654C110.927 20.2158 110.792 20.6538 110.792 21.1793C110.792 21.9414 111.067 22.5239 111.619 22.9268C112.18 23.321 112.889 23.5181 113.748 23.5181ZM132.45 15.3324V27H126.853V6.81818H132.187V10.3789H132.424C132.871 9.20514 133.619 8.27663 134.671 7.59339C135.722 6.9014 136.996 6.5554 138.494 6.5554C139.896 6.5554 141.118 6.86198 142.16 7.47514C143.202 8.0883 144.013 8.96425 144.591 10.103C145.169 11.233 145.458 12.5819 145.458 14.1499V27H139.861V15.1484C139.869 13.9134 139.554 12.9498 138.915 12.2578C138.275 11.5571 137.395 11.2067 136.274 11.2067C135.52 11.2067 134.855 11.3687 134.276 11.6928C133.707 12.0169 133.26 12.4899 132.936 13.1119C132.621 13.725 132.459 14.4652 132.45 15.3324ZM148.975 27V0.0909083H154.572V10.2081H154.743C154.988 9.66501 155.343 9.11316 155.807 8.55256C156.28 7.98319 156.893 7.51018 157.646 7.13352C158.408 6.74811 159.354 6.5554 160.484 6.5554C161.956 6.5554 163.314 6.94081 164.558 7.71165C165.801 8.47372 166.796 9.62559 167.54 11.1673C168.285 12.7002 168.657 14.6229 168.657 16.9354C168.657 19.1866 168.294 21.0874 167.566 22.6378C166.848 24.1795 165.867 25.3488 164.623 26.146C163.388 26.9343 162.004 27.3285 160.471 27.3285C159.385 27.3285 158.461 27.1489 157.699 26.7898C156.946 26.4306 156.328 25.9795 155.846 25.4364C155.365 24.8846 154.997 24.3284 154.743 23.7678H154.493V27H148.975ZM154.454 16.9091C154.454 18.1091 154.62 19.1559 154.953 20.0494C155.286 20.9428 155.767 21.6392 156.398 22.1385C157.029 22.629 157.795 22.8743 158.698 22.8743C159.609 22.8743 160.379 22.6246 161.01 22.1254C161.641 21.6173 162.118 20.9165 162.442 20.0231C162.775 19.1209 162.941 18.0829 162.941 16.9091C162.941 15.7441 162.779 14.7192 162.455 13.8345C162.131 12.9498 161.654 12.2578 161.023 11.7585C160.392 11.2592 159.617 11.0096 158.698 11.0096C157.787 11.0096 157.016 11.2505 156.385 11.7322C155.763 12.214 155.286 12.8973 154.953 13.782C154.62 14.6667 154.454 15.709 154.454 16.9091ZM180.589 27.3942C178.513 27.3942 176.726 26.9737 175.229 26.1328C173.739 25.2831 172.592 24.0831 171.786 22.5327C170.98 20.9735 170.577 19.1296 170.577 17.0011C170.577 14.9251 170.98 13.1031 171.786 11.5352C172.592 9.96721 173.726 8.74526 175.189 7.86932C176.661 6.99337 178.386 6.5554 180.366 6.5554C181.697 6.5554 182.937 6.77 184.084 7.19922C185.241 7.61967 186.248 8.25473 187.106 9.1044C187.974 9.95407 188.648 11.0227 189.13 12.3104C189.612 13.5893 189.852 15.0871 189.852 16.804V18.3413H172.811V14.8725H184.584C184.584 14.0666 184.408 13.3527 184.058 12.7308C183.708 12.1089 183.222 11.6228 182.6 11.2724C181.986 10.9132 181.273 10.7337 180.458 10.7337C179.608 10.7337 178.855 10.9308 178.198 11.3249C177.55 11.7103 177.042 12.2315 176.674 12.8885C176.306 13.5367 176.118 14.2594 176.109 15.0565V18.3544C176.109 19.353 176.293 20.2158 176.661 20.9428C177.037 21.6699 177.567 22.2305 178.251 22.6246C178.934 23.0188 179.744 23.2159 180.681 23.2159C181.303 23.2159 181.873 23.1283 182.389 22.9531C182.906 22.7779 183.349 22.5152 183.716 22.1648C184.084 21.8144 184.365 21.3852 184.557 20.8771L189.734 21.2188C189.471 22.4626 188.933 23.5488 188.118 24.4773C187.312 25.397 186.27 26.1153 184.991 26.6321C183.721 27.1402 182.254 27.3942 180.589 27.3942ZM192.505 27V6.81818H197.932V10.3395H198.142C198.51 9.08688 199.127 8.14086 199.994 7.50142C200.862 6.85322 201.86 6.52912 202.99 6.52912C203.271 6.52912 203.573 6.54664 203.897 6.58167C204.221 6.61671 204.506 6.66489 204.751 6.72621V11.6928C204.488 11.614 204.125 11.5439 203.66 11.4826C203.196 11.4213 202.771 11.3906 202.386 11.3906C201.562 11.3906 200.827 11.5702 200.178 11.9293C199.539 12.2797 199.031 12.7702 198.654 13.4009C198.286 14.0316 198.102 14.7586 198.102 15.582V27H192.505ZM206.645 27V6.81818H212.071V10.3395H212.282C212.649 9.08688 213.267 8.14086 214.134 7.50142C215.001 6.85322 216 6.52912 217.13 6.52912C217.41 6.52912 217.712 6.54664 218.036 6.58167C218.361 6.61671 218.645 6.66489 218.891 6.72621V11.6928C218.628 11.614 218.264 11.5439 217.8 11.4826C217.336 11.4213 216.911 11.3906 216.525 11.3906C215.702 11.3906 214.966 11.5702 214.318 11.9293C213.679 12.2797 213.171 12.7702 212.794 13.4009C212.426 14.0316 212.242 14.7586 212.242 15.582V27H206.645ZM225.961 27.381C224.674 27.381 223.526 27.1577 222.519 26.7109C221.511 26.2554 220.714 25.5853 220.127 24.7006C219.549 23.8072 219.26 22.6947 219.26 21.3633C219.26 20.2421 219.466 19.3004 219.878 18.5384C220.29 17.7763 220.85 17.1631 221.56 16.6989C222.269 16.2346 223.075 15.8842 223.977 15.6477C224.888 15.4112 225.843 15.2448 226.842 15.1484C228.015 15.0258 228.961 14.9119 229.68 14.8068C230.398 14.6929 230.919 14.5265 231.243 14.3075C231.567 14.0885 231.729 13.7644 231.729 13.3352V13.2564C231.729 12.4242 231.467 11.7804 230.941 11.3249C230.424 10.8694 229.688 10.6417 228.734 10.6417C227.726 10.6417 226.925 10.8651 226.329 11.3118C225.734 11.7498 225.339 12.3016 225.147 12.9673L219.97 12.5469C220.233 11.3205 220.749 10.2607 221.52 9.36719C222.291 8.46496 223.285 7.77296 224.503 7.29119C225.729 6.80066 227.148 6.5554 228.76 6.5554C229.881 6.5554 230.954 6.68679 231.979 6.94957C233.013 7.21236 233.928 7.61967 234.725 8.17152C235.531 8.72337 236.166 9.43288 236.63 10.3001C237.095 11.1585 237.327 12.1877 237.327 13.3878V27H232.018V24.2013H231.861C231.537 24.832 231.103 25.3883 230.56 25.87C230.017 26.343 229.364 26.7153 228.602 26.9869C227.84 27.2496 226.96 27.381 225.961 27.381ZM227.564 23.5181C228.388 23.5181 229.115 23.3561 229.745 23.032C230.376 22.6991 230.871 22.2524 231.23 21.6918C231.589 21.1312 231.769 20.4961 231.769 19.7866V17.6449C231.594 17.7588 231.353 17.8639 231.046 17.9602C230.748 18.0478 230.411 18.131 230.034 18.2099C229.658 18.2799 229.281 18.3456 228.904 18.407C228.528 18.4595 228.186 18.5077 227.88 18.5515C227.223 18.6478 226.649 18.8011 226.158 19.0114C225.668 19.2216 225.287 19.5063 225.015 19.8654C224.744 20.2158 224.608 20.6538 224.608 21.1793C224.608 21.9414 224.884 22.5239 225.436 22.9268C225.996 23.321 226.706 23.5181 227.564 23.5181Z" fill="#2C9143"/>
</svg>
